<?xml version="1.0" standalone="no"?>
<!DOCTYPE svg PUBLIC "-//W3C//DTD SVG 20010904//EN"
 "http://www.w3.org/TR/2001/REC-SVG-20010904/DTD/svg10.dtd">
<svg version="1.0" xmlns="http://www.w3.org/2000/svg"
 width="300.000000pt" height="300.000000pt" viewBox="0 0 300.000000 300.000000"
 preserveAspectRatio="xMidYMid meet">
<metadata>
Created by potrace 1.11, written by Peter Selinger 2001-2013
</metadata>
<g transform="translate(0.000000,300.000000) scale(0.100000,-0.100000)"
fill="#000000" stroke="none">
<path d="M1064 2435 c-151 -33 -268 -99 -386 -216 -71 -72 -94 -103 -132 -180
-74 -150 -86 -215 -86 -461 0 -197 -1 -208 -19 -208 -10 0 -24 -7 -31 -15 -7
-8 -26 -126 -44 -263 l-31 -248 -42 -48 c-111 -126 -95 -244 69 -507 59 -94
66 -111 71 -169 3 -36 10 -77 16 -92 9 -25 16 -28 54 -28 l44 0 -18 53 c-10
28 -19 77 -19 107 0 50 -6 63 -66 155 -97 149 -139 239 -139 300 0 95 55 163
150 186 65 15 79 22 83 43 6 29 -18 46 -64 46 -35 0 -44 4 -44 18 0 9 10 99
22 200 21 171 23 182 43 182 39 0 45 19 45 132 l0 108 980 0 980 0 0 -108 c0
-111 7 -132 42 -132 12 0 19 -10 23 -32 6 -36 45 -348 45 -360 0 -5 -18 -8
-39 -8 -57 0 -71 -8 -71 -41 0 -23 5 -30 28 -35 85 -19 107 -28 142 -60 48
-44 75 -109 65 -160 -9 -51 -64 -158 -145 -284 -59 -92 -67 -110 -63 -142 4
-30 -12 -104 -33 -155 -4 -9 7 -13 40 -13 l45 0 16 52 c8 28 15 71 15 94 0 35
11 59 61 136 171 263 189 388 73 517 l-45 50 -31 248 c-17 136 -35 254 -41
261 -5 6 -18 12 -28 12 -18 0 -19 11 -19 208 0 175 -3 221 -20 288 -56 220
-207 408 -405 504 -152 73 -152 73 -615 76 -322 2 -429 0 -476 -11z m884 -80
c46 -9 115 -34 172 -62 165 -80 296 -233 349 -407 12 -37 21 -74 21 -82 0 -12
-147 -14 -970 -14 -931 0 -970 1 -970 18 0 31 31 124 60 182 92 182 272 323
465 364 103 21 764 22 873 1z"/>
<path d="M712 1358 c-18 -18 -16 -269 2 -311 17 -39 71 -92 109 -106 107 -41
322 35 446 157 64 63 98 125 107 195 11 80 25 77 -335 77 -233 0 -320 -3 -329
-12z"/>
<path d="M1672 1358 c-22 -22 -14 -92 18 -156 99 -198 428 -335 569 -238 67
47 81 89 81 247 0 92 -4 139 -12 147 -17 17 -639 17 -656 0z"/>
<path d="M1403 785 c-62 -17 -95 -33 -268 -131 -71 -40 -155 -80 -185 -87 -60
-16 -81 -37 -64 -64 8 -13 24 -18 56 -17 50 0 136 39 318 143 123 71 208 96
292 87 77 -8 119 -26 288 -122 198 -112 285 -138 314 -91 17 27 -5 51 -53 59
-41 7 -98 35 -304 151 -148 83 -270 105 -394 72z"/>
<path d="M1442 369 c-72 -36 -148 -149 -186 -278 -29 -100 -54 -91 264 -91
198 0 280 3 280 11 0 34 -36 143 -67 202 -81 154 -183 209 -291 156z"/>
<path d="M815 306 c-44 -19 -103 -89 -111 -131 -9 -51 1 -114 24 -144 19 -26
20 -26 162 -26 142 0 143 0 162 26 23 30 33 93 24 144 -8 43 -68 113 -113 132
-41 16 -109 16 -148 -1z"/>
<path d="M2075 306 c-44 -19 -103 -89 -111 -131 -9 -51 1 -114 24 -144 19 -26
21 -26 165 -29 l145 -3 21 44 c23 47 27 110 10 154 -14 38 -67 92 -106 109
-40 17 -108 17 -148 0z"/>
</g>
</svg>
