<?xml version="1.0" standalone="no"?><!-- Generator: Gravit.io --><svg xmlns="http://www.w3.org/2000/svg" xmlns:xlink="http://www.w3.org/1999/xlink" style="isolation:isolate" viewBox="0 0 512 512" width="512" height="512"><defs><clipPath id="_clipPath_ef6imbW3ItNNXlCmcz3te1SEXWnhKGkZ"><rect width="512" height="512"/></clipPath></defs><g clip-path="url(#_clipPath_ef6imbW3ItNNXlCmcz3te1SEXWnhKGkZ)"><g id="Group"><g id="Frame"><path d=" M 29 504 C 18 504 8 493 8 478 L 8 34 C 8 19 18 8 29 8 L 483 8 C 494 8 504 19 504 34 L 504 478 C 504 493 494 504 483 504 L 29 504 Z " fill="rgb(152,204,253)"/><path d=" M 484 17 C 491 17 498 25 498 34 L 498 478 C 498 487 491 495 484 495 L 28 495 C 21 495 14 487 14 478 L 14 34 C 14 25 21 17 28 17 L 484 17 Z  M 484 0 L 28 0 C 13 0 0 15 0 34 L 0 478 C 0 497 13 512 28 512 L 484 512 C 499 512 512 497 512 478 L 512 34 C 512 15 499 0 484 0 Z " fill="rgb(71,136,199)"/><path d=" M 40 40 L 472 40 L 472 472 L 40 472 L 40 40 Z " fill="rgb(255,255,255)"/></g><g id="Box"><path d=" M 172 309 L 172 203 L 256 167 L 340 203 L 340 309 L 256 345 L 172 309 Z " fill="rgb(223,240,254)"/><path d=" M 256 174 L 333 207 L 333 305 L 256 338 L 179 305 L 179 207 L 256 174 Z  M 256 160 L 166 198 L 166 314 L 256 352 L 346 314 L 346 198 L 256 160 Z " fill="rgb(71,136,199)"/><path d=" M 256 174 L 255 174 L 179 207 L 256 237 L 330 205 L 257 174 L 256 174 Z " fill="rgb(182,220,254)"/><path d=" M 256 338 L 333 305 L 333 207 L 330 205 L 256 237 L 256 338 Z " fill="rgb(152,204,253)"/></g><g id="Box" style="opacity:0.32;"><path d=" M 71 146 L 71 90 L 115 72 L 160 90 L 160 146 L 115 164 L 71 146 Z " fill="rgb(223,240,254)"/><path d=" M 115 75 L 156 92 L 156 144 L 115 161 L 75 144 L 75 92 L 115 75 Z  M 115 68 L 68 88 L 68 148 L 115 168 L 163 148 L 163 88 L 115 68 Z " fill="rgb(71,136,199)"/><path d=" M 115 75 L 115 76 L 75 92 L 115 108 L 154 92 L 116 76 L 115 75 Z " fill="rgb(182,220,254)"/><path d=" M 115 161 L 156 144 L 156 92 L 154 92 L 115 108 L 115 161 Z " fill="rgb(152,204,253)"/></g><g id="Box" style="opacity:0.6;"><path d=" M 71 422 L 71 366 L 115 348 L 160 366 L 160 422 L 115 440 L 71 422 Z " fill="rgb(223,240,254)"/><path d=" M 115 351 L 156 368 L 156 420 L 115 437 L 75 420 L 75 368 L 115 351 Z  M 115 344 L 68 364 L 68 424 L 115 444 L 163 424 L 163 364 L 115 344 Z " fill="rgb(71,136,199)"/><path d=" M 115 351 L 115 352 L 75 368 L 115 384 L 154 368 L 116 352 L 115 351 Z " fill="rgb(182,220,254)"/><path d=" M 115 437 L 156 420 L 156 368 L 154 368 L 115 384 L 115 437 Z " fill="rgb(152,204,253)"/></g><g id="Box" style="opacity:0.32;"><path d=" M 357 422 L 357 366 L 402 348 L 446 366 L 446 422 L 402 440 L 357 422 Z " fill="rgb(223,240,254)"/><path d=" M 402 351 L 442 368 L 442 420 L 402 437 L 361 420 L 361 368 L 402 351 Z  M 402 344 L 354 364 L 354 424 L 402 444 L 449 424 L 449 364 L 402 344 Z " fill="rgb(71,136,199)"/><path d=" M 402 351 L 401 352 L 361 368 L 402 384 L 440 368 L 402 352 L 402 351 Z " fill="rgb(182,220,254)"/><path d=" M 402 437 L 442 420 L 442 368 L 440 368 L 402 384 L 402 437 Z " fill="rgb(152,204,253)"/></g><g id="Box" style="opacity:0.6;"><path d=" M 357 146 L 357 90 L 402 72 L 446 90 L 446 146 L 402 164 L 357 146 Z " fill="rgb(223,240,254)"/><path d=" M 402 75 L 442 92 L 442 144 L 402 161 L 361 144 L 361 92 L 402 75 Z  M 402 68 L 354 88 L 354 148 L 402 168 L 449 148 L 449 88 L 402 68 Z " fill="rgb(71,136,199)"/><path d=" M 402 75 L 401 76 L 361 92 L 402 108 L 440 92 L 402 76 L 402 75 Z " fill="rgb(182,220,254)"/><path d=" M 402 161 L 442 144 L 442 92 L 440 92 L 402 108 L 402 161 Z " fill="rgb(152,204,253)"/></g></g></g></svg>